<svg width="100" height="100" viewBox="0 0 100 100" fill="none" xmlns="http://www.w3.org/2000/svg">
<mask id="mask0_142_43" style="mask-type:luminance" maskUnits="userSpaceOnUse" x="0" y="0" width="100" height="100">
<path d="M0 0H100V100H0V0Z" fill="white"/>
</mask>
<g mask="url(#mask0_142_43)">
<path d="M0.03125 0H7.34375V100H0.03125V0ZM95.0937 0H99.9687V100H95.0937V0ZM12.2187 0H19.5312V63.8893H12.2187V0ZM24.4062 0H29.2812V63.8893H24.4062V0ZM34.1562 0H39.0312V63.8893H34.1562V0ZM46.3437 0H53.6562V63.8893H46.3437V0ZM60.9687 0H65.8437V63.8893H60.9687V0ZM70.7187 0H75.5937V63.8893H70.7187V0ZM80.4687 0H90.2187V63.8893H80.4687V0ZM12.2427 94.431V74.2692H17.2573C19.1052 74.2692 20.5083 74.7366 21.4667 75.6751C22.4271 76.6111 22.9073 77.9838 22.9073 79.7919C22.9073 80.817 22.7094 81.6973 22.3125 82.4364C21.9156 83.1755 21.374 83.7142 20.6844 84.0559C21.476 84.3133 22.0885 84.8329 22.5198 85.6136C22.949 86.3943 23.1635 87.3529 23.1635 88.5001C23.1635 90.4553 22.6906 91.9336 21.749 92.9302C20.8062 93.9256 19.4385 94.4227 17.65 94.4227H12.2427V94.431ZM15.799 82.7033H17.2229C18.625 82.7033 19.326 81.8752 19.326 80.2226C19.326 79.3078 19.1656 78.6553 18.8417 78.2555C18.5177 77.8557 17.9906 77.6611 17.2615 77.6611H15.799V82.7033ZM15.799 85.667V91.0533H17.6469C18.2885 91.0533 18.7729 90.8279 19.1052 90.3747C19.4365 89.9226 19.6021 89.2808 19.6021 88.4503C19.6021 86.6387 19.0271 85.7109 17.876 85.667H15.799ZM36.85 86.0727C36.85 88.7113 36.301 90.7579 35.2073 92.2172C34.1146 93.6776 32.5958 94.4061 30.651 94.4061C28.7135 94.4061 27.1948 93.6836 26.0885 92.2385C24.9812 90.7911 24.4208 88.7718 24.4042 86.1688V82.8054C24.4042 80.1051 24.9521 78.0004 26.049 76.4806C27.149 74.9644 28.6719 74.2051 30.624 74.2051C32.5448 74.2051 34.0583 74.9478 35.1625 76.4415C36.2698 77.9281 36.8281 80.0221 36.8448 82.714L36.85 86.0727ZM33.3542 82.7745C33.3542 81.0056 33.1354 79.6863 32.6917 78.819C32.2479 77.9553 31.5604 77.5247 30.6292 77.5247C29.7052 77.5247 29.0229 77.9387 28.5812 78.7692C28.1385 79.6033 27.9094 80.8692 27.8917 82.5717V86.0692C27.8917 87.7883 28.1156 89.0554 28.5667 89.8693C29.0177 90.6831 29.7125 91.0913 30.6531 91.0913C31.5604 91.0913 32.2375 90.6974 32.6792 89.8918C33.1229 89.1005 33.349 87.8607 33.3562 86.189L33.3542 82.7745ZM90.2187 86.1249C90.2187 88.7635 89.6708 90.8113 88.576 92.2694C87.4844 93.731 85.9656 94.4583 84.0198 94.4583C82.0823 94.4583 80.5635 93.7358 79.4573 92.2919C78.351 90.8445 77.7896 88.8252 77.7729 86.2222V82.8588C77.7729 80.1585 78.3208 78.0526 79.4177 76.5328C80.5177 75.0166 82.0406 74.2585 83.9937 74.2585C85.9146 74.2585 87.4281 75 88.5323 76.4949C89.6385 77.9803 90.1969 80.0755 90.2135 82.7662L90.2187 86.1249ZM86.7229 82.8303C86.7229 81.0614 86.5042 79.7421 86.0604 78.8748C85.6167 78.0111 84.9292 77.5804 83.9979 77.5804C83.074 77.5804 82.3917 77.9945 81.951 78.825C81.5073 79.6578 81.2781 80.9249 81.2604 82.6274V86.1249C81.2604 87.8441 81.4854 89.1111 81.9365 89.925C82.3875 90.7389 83.0812 91.147 84.0229 91.147C84.9292 91.147 85.6073 90.7531 86.0479 89.9476C86.4917 89.155 86.7187 87.9164 86.726 86.2448L86.7229 82.8303ZM42.6021 91.058H48.8719V94.4357H39.0312V74.2775H42.6042L42.6021 91.058ZM60.3573 85.7145H54.7917V91.058H61.3781V94.4357H51.2187V74.2775H61.351V77.6694H54.7917V82.4328H60.3573V85.7145ZM76.2396 77.6777H71.8646V94.444H68.2812V77.6777H63.9792V74.2834H76.2375L76.2396 77.6777Z" fill="#04D282"/>
</g>
</svg>
