<svg width="100" height="100" viewBox="0 0 100 100" fill="none" xmlns="http://www.w3.org/2000/svg">
<path d="M72.5549 0.521451C75.8593 -1.01339 80.0939 0.9899 81.265 4.56857C84.3348 12.5637 87.335 20.5915 90.438 28.5788C92.8682 28.5788 95.6797 28.3153 97.5474 30.3197C101.265 33.7261 99.1803 39.3734 100 43.8304V84.6665C99.1557 89.083 101.328 94.9273 97.5474 98.2425C95.5083 100.393 92.4535 99.9496 89.8358 99.9834C62.2032 99.9417 34.562 99.9834 6.92932 99.9676C3.89058 100.14 1.13256 97.7346 0.295731 94.7303C0.226084 91.4297 0.0792904 84.8298 0 81.5304V44.0995C0.72647 39.1099 -1.45294 32.2138 3.78129 29.259C26.6801 19.6231 49.6335 10.0999 72.5549 0.521451ZM4.60205 33.4536C4.2581 36.1708 4.36739 38.9117 4.37596 41.6447C34.7988 41.6695 65.2205 41.6616 95.6423 41.6537C95.6187 39.4455 95.6958 37.2451 95.5951 35.0447C95.7665 33.8871 94.8986 32.9187 93.8057 33.002C66.4302 32.9446 39.0558 32.9942 11.6814 32.9773C9.31232 32.9288 6.92182 32.8793 4.60205 33.4536ZM4.37489 59.3849C4.38989 70.7606 4.32775 82.1373 4.39739 93.5141C4.16274 95.1638 5.78819 95.7786 7.05362 95.5906C35.702 95.5827 64.3515 95.5906 93 95.5906C94.2343 95.7629 95.8362 95.148 95.594 93.5299C95.6797 82.1452 95.609 70.7594 95.6251 59.3827C65.2109 59.3849 34.7891 59.3849 4.37489 59.3849Z" fill="#04D282"/>
<path d="M65.4383 82.6532C63.2383 77.9895 66.7161 72.2539 71.3936 71.2148C73.7012 70.5804 76.07 71.4607 77.9862 72.7697C79.6016 71.9993 81.2023 70.9928 83.0414 71.0004C87.4572 70.9536 91.4964 75.1005 91.4278 79.662C91.2811 84.1037 87.3422 88.0624 83.0182 87.9993C81.2033 87.9916 79.6027 87.008 78.0326 86.1908C73.947 89.7522 67.3703 87.6021 65.4383 82.6532ZM68.8707 79.6946C68.6312 83.2234 73.1789 85.0417 75.61 82.8589C74.7416 80.6065 74.8714 78.1962 75.5878 75.9275C72.8011 74.1114 68.3927 75.959 68.8707 79.6946ZM80.91 75.761C78.0094 77.6968 78.671 83.058 82.2026 83.6685C85.0335 84.5009 87.9342 81.8676 87.2884 78.8469C87.1808 75.65 83.3411 74.3801 80.91 75.761Z" fill="#04D282"/>
<path d="M12.7136 77.182C23.3489 76.847 34.0088 77.0788 44.6592 77.0699C47.3255 76.8291 47.3566 82.2698 44.627 81.9462C34.203 81.9921 23.7715 82.0481 13.3464 81.9271C11.1648 82.0571 10.6961 77.9718 12.7136 77.182Z" fill="#04D282"/>
<path d="M12.7136 84.1456C23.3489 83.8776 34.0088 84.063 44.6592 84.0559C47.3255 83.8633 47.3566 88.2159 44.627 87.9561C34.203 87.9938 23.7715 88.0386 13.3464 87.9418C11.1648 88.0457 10.6961 84.7764 12.7136 84.1456Z" fill="#04D282"/>
<path d="M12.7136 69.182C23.3489 68.847 34.0088 69.0788 44.6592 69.0699C47.3255 68.8278 47.3566 74.2699 44.627 73.9451C34.203 73.9922 23.7715 74.0483 13.3464 73.9272C11.1648 74.0572 10.6961 69.9705 12.7136 69.182Z" fill="#04D282"/>
</svg>
