<svg width="100" height="63" viewBox="0 0 100 63" fill="none" xmlns="http://www.w3.org/2000/svg">
<path d="M51.4598 46.7192H70.3723C70.468 46.7192 70.5627 46.7099 70.6563 46.6923C70.751 46.6737 70.8425 46.6468 70.9308 46.6116C71.0192 46.5755 71.1032 46.532 71.183 46.4804C71.2628 46.4287 71.3362 46.3697 71.4043 46.3046C71.4714 46.2385 71.532 46.1671 71.5852 46.0896C71.6384 46.0131 71.6842 45.9314 71.7203 45.8446C71.7565 45.7588 71.7842 45.6709 71.8033 45.58C71.8225 45.488 71.831 45.3959 71.831 45.3029C71.831 45.2099 71.8225 45.1179 71.8033 45.0269C71.7842 44.9359 71.7565 44.847 71.7203 44.7612C71.6842 44.6754 71.6384 44.5938 71.5852 44.5162C71.532 44.4397 71.4714 44.3684 71.4043 44.3022C71.3362 44.2361 71.2628 44.1782 71.183 44.1265C71.1032 44.0748 71.0192 44.0304 70.9308 43.9952C70.8425 43.9601 70.751 43.9332 70.6563 43.9146C70.5627 43.897 70.468 43.8877 70.3723 43.8877H51.4598C51.364 43.8877 51.2693 43.897 51.1746 43.9146C51.081 43.9332 50.9895 43.9601 50.9012 43.9952C50.8129 44.0304 50.7288 44.0748 50.649 44.1265C50.5692 44.1782 50.4958 44.2361 50.4277 44.3022C50.3596 44.3684 50.299 44.4397 50.2458 44.5173C50.1926 44.5938 50.1479 44.6754 50.1117 44.7612C50.0745 44.847 50.0468 44.9359 50.0287 45.0269C50.0096 45.1179 50 45.2099 50 45.3029C50 45.3959 50.0096 45.488 50.0287 45.58C50.0468 45.6709 50.0745 45.7588 50.1117 45.8446C50.1479 45.9314 50.1926 46.0131 50.2458 46.0896C50.299 46.1671 50.3596 46.2385 50.4277 46.3046C50.4958 46.3697 50.5692 46.4287 50.649 46.4804C50.7288 46.532 50.8129 46.5755 50.9012 46.6116C50.9895 46.6468 51.081 46.6737 51.1746 46.6923C51.2693 46.7099 51.364 46.7192 51.4598 46.7192Z" fill="#04D282"/>
<path d="M51.4178 39.6404H88.0188C88.1118 39.6404 88.2048 39.6311 88.2957 39.6125C88.3867 39.5949 88.4756 39.5681 88.5613 39.5319C88.6471 39.4967 88.7287 39.4533 88.8062 39.4016C88.8837 39.3499 88.9551 39.291 89.0212 39.2259C89.0873 39.1597 89.1462 39.0884 89.1979 39.0109C89.2496 38.9333 89.293 38.8517 89.3281 38.7659C89.3643 38.6801 89.3911 38.5922 89.4087 38.5002C89.4273 38.4092 89.4366 38.3172 89.4366 38.2242C89.4366 38.1311 89.4273 38.0391 89.4087 37.9482C89.3911 37.8572 89.3643 37.7683 89.3281 37.6825C89.293 37.5967 89.2496 37.515 89.1979 37.4375C89.1462 37.361 89.0873 37.2886 89.0212 37.2235C88.9551 37.1573 88.8837 37.0984 88.8062 37.0467C88.7287 36.995 88.6471 36.9516 88.5613 36.9165C88.4756 36.8803 88.3867 36.8534 88.2957 36.8358C88.2048 36.8172 88.1118 36.809 88.0188 36.809H51.4178C51.3248 36.809 51.2328 36.8172 51.1409 36.8358C51.0499 36.8534 50.9611 36.8803 50.8753 36.9165C50.7895 36.9516 50.7079 36.995 50.6304 37.0467C50.5529 37.0984 50.4816 37.1573 50.4154 37.2235C50.3493 37.2886 50.2904 37.361 50.2387 37.4375C50.187 37.515 50.1436 37.5967 50.1085 37.6825C50.0723 37.7683 50.0455 37.8572 50.0279 37.9482C50.0093 38.0391 50 38.1311 50 38.2242C50 38.3172 50.0093 38.4092 50.0279 38.5002C50.0455 38.5922 50.0723 38.6801 50.1085 38.7659C50.1436 38.8517 50.187 38.9333 50.2387 39.0109C50.2904 39.0884 50.3493 39.1597 50.4154 39.2259C50.4816 39.291 50.5529 39.3499 50.6304 39.4016C50.7079 39.4533 50.7895 39.4967 50.8753 39.5319C50.9611 39.5681 51.0499 39.5949 51.1409 39.6125C51.2328 39.6311 51.3248 39.6404 51.4178 39.6404Z" fill="#04D282"/>
<path d="M12.7096 52.382H42.2189C42.3146 52.382 42.4082 52.3727 42.5008 52.3539C42.5933 52.3363 42.6838 52.3092 42.7711 52.2729C42.8594 52.2375 42.9425 52.1939 43.0203 52.1419C43.0992 52.0899 43.1729 52.0307 43.2391 51.9641C43.3064 51.8986 43.3664 51.8269 43.419 51.749C43.4716 51.671 43.5157 51.5889 43.5526 51.5026C43.5883 51.4163 43.6157 51.3269 43.6346 51.2354C43.6525 51.144 43.6619 51.0515 43.6619 50.9579V45.3321H33.3448C33.2502 45.3321 33.1566 45.3228 33.063 45.3041C32.9704 45.2864 32.8799 45.2594 32.7927 45.223C32.7054 45.1877 32.6223 45.144 32.5434 45.092C32.4645 45.0401 32.3919 44.9808 32.3246 44.9143C32.2573 44.8488 32.1973 44.7771 32.1447 44.6991C32.0922 44.6211 32.048 44.539 32.0122 44.4527C31.9754 44.3665 31.9481 44.2771 31.9302 44.1856C31.9112 44.0941 31.9018 44.0016 31.9018 43.908C31.9018 43.8145 31.9112 43.722 31.9302 43.6305C31.9481 43.539 31.9754 43.4496 32.0122 43.3633C32.048 43.2771 32.0922 43.1949 32.1447 43.117C32.1973 43.039 32.2573 42.9673 32.3246 42.9018C32.3919 42.8353 32.4645 42.776 32.5434 42.7241C32.6223 42.6721 32.7054 42.6284 32.7927 42.5931C32.8799 42.5567 32.9704 42.5297 33.063 42.512C33.1566 42.4933 33.2502 42.4839 33.3448 42.4839H43.6619V38.9195H33.3448C33.2502 38.9195 33.1566 38.9101 33.063 38.8925C32.9704 38.8738 32.8799 38.8467 32.7927 38.8114C32.7054 38.775 32.6223 38.7314 32.5434 38.6794C32.4645 38.6274 32.3919 38.5682 32.3246 38.5027C32.2573 38.4361 32.1973 38.3644 32.1447 38.2864C32.0922 38.2095 32.048 38.1274 32.0122 38.0411C31.9754 37.9538 31.9481 37.8655 31.9302 37.774C31.9112 37.6815 31.9018 37.5889 31.9018 37.4954C31.9018 37.4029 31.9112 37.3093 31.9302 37.2178C31.9481 37.1264 31.9754 37.037 32.0122 36.9507C32.048 36.8644 32.0922 36.7823 32.1447 36.7054C32.1973 36.6274 32.2573 36.5557 32.3246 36.4892C32.3919 36.4226 32.4645 36.3644 32.5434 36.3124C32.6223 36.2605 32.7054 36.2168 32.7927 36.1804C32.8799 36.1451 32.9704 36.1181 33.063 36.0993C33.1566 36.0817 33.2502 36.0723 33.3448 36.0723H43.6619V30.4455C43.6619 30.352 43.6525 30.2595 43.6346 30.168C43.6157 30.0765 43.5883 29.9871 43.5526 29.9008C43.5157 29.8146 43.4716 29.7324 43.419 29.6545C43.3664 29.5776 43.3064 29.5058 43.2391 29.4393C43.1729 29.3728 43.0992 29.3146 43.0203 29.2626C42.9425 29.2106 42.8594 29.1659 42.7711 29.1306C42.6838 29.0952 42.5933 29.0682 42.5008 29.0495C42.4082 29.0318 42.3146 29.0225 42.2189 29.0225H12.7096C12.6149 29.0225 12.5213 29.0318 12.4288 29.0495C12.3352 29.0682 12.2458 29.0952 12.1574 29.1306C12.0701 29.1659 11.987 29.2106 11.9081 29.2626C11.8292 29.3146 11.7567 29.3728 11.6904 29.4393C11.6231 29.5058 11.5631 29.5776 11.5105 29.6545C11.458 29.7324 11.4138 29.8146 11.377 29.9008C11.3412 29.9871 11.3139 30.0765 11.2949 30.168C11.277 30.2595 11.2676 30.352 11.2676 30.4455V36.0723H21.6541C21.7488 36.0723 21.8424 36.0817 21.9349 36.0993C22.0285 36.1181 22.119 36.1451 22.2063 36.1804C22.2936 36.2168 22.3767 36.2605 22.4556 36.3124C22.5345 36.3644 22.607 36.4226 22.6743 36.4892C22.7406 36.5557 22.8006 36.6274 22.8531 36.7054C22.9057 36.7823 22.951 36.8644 22.9867 36.9507C23.0225 37.037 23.0498 37.1264 23.0688 37.2178C23.0877 37.3093 23.0961 37.4029 23.0961 37.4954C23.0961 37.5889 23.0877 37.6815 23.0688 37.774C23.0498 37.8655 23.0225 37.9538 22.9867 38.0411C22.951 38.1274 22.9057 38.2095 22.8531 38.2864C22.8006 38.3644 22.7406 38.4361 22.6743 38.5027C22.607 38.5682 22.5345 38.6274 22.4556 38.6794C22.3767 38.7314 22.2936 38.775 22.2063 38.8114C22.119 38.8467 22.0285 38.8738 21.9349 38.8925C21.8424 38.9101 21.7488 38.9195 21.6541 38.9195H11.2676V42.4839H21.6541C21.7488 42.4839 21.8424 42.4933 21.9349 42.512C22.0285 42.5297 22.119 42.5567 22.2063 42.5931C22.2936 42.6284 22.3767 42.6721 22.4556 42.7241C22.5345 42.776 22.607 42.8353 22.6743 42.9018C22.7406 42.9673 22.8006 43.039 22.8531 43.117C22.9057 43.1949 22.951 43.2771 22.9867 43.3633C23.0225 43.4496 23.0498 43.539 23.0688 43.6305C23.0877 43.722 23.0961 43.8145 23.0961 43.908C23.0961 44.0016 23.0877 44.0941 23.0688 44.1856C23.0498 44.2771 23.0225 44.3665 22.9867 44.4527C22.951 44.539 22.9057 44.6211 22.8531 44.6991C22.8006 44.7771 22.7406 44.8488 22.6743 44.9143C22.607 44.9808 22.5345 45.0401 22.4556 45.092C22.3767 45.144 22.2936 45.1877 22.2063 45.223C22.119 45.2594 22.0285 45.2864 21.9349 45.3041C21.8424 45.3228 21.7488 45.3321 21.6541 45.3321H11.2676V50.9579C11.2676 51.0515 11.277 51.144 11.2949 51.2354C11.3139 51.3269 11.3412 51.4163 11.377 51.5026C11.4138 51.5889 11.458 51.671 11.5105 51.749C11.5631 51.8269 11.6231 51.8986 11.6904 51.9641C11.7567 52.0307 11.8292 52.0899 11.9081 52.1419C11.987 52.1939 12.0701 52.2375 12.1574 52.2729C12.2458 52.3092 12.3352 52.3363 12.4288 52.3539C12.5213 52.3727 12.6149 52.382 12.7096 52.382Z" fill="#04D282"/>
<mask id="mask0_143_13" style="mask-type:luminance" maskUnits="userSpaceOnUse" x="0" y="0" width="100" height="63">
<path d="M0 0H100V63H0V0Z" fill="white"/>
</mask>
<g mask="url(#mask0_143_13)">
<path d="M93.4233 0H6.4501C6.2396 0.0010416 6.03015 0.0114583 5.82174 0.0322917C5.61229 0.053125 5.40494 0.0843749 5.19863 0.125C4.99232 0.165625 4.78915 0.216667 4.58808 0.278125C4.38701 0.338542 4.19013 0.409375 3.99534 0.489583C3.8016 0.569792 3.61204 0.658333 3.42668 0.757292C3.24132 0.85625 3.06119 0.963542 2.88734 1.07917C2.71245 1.19583 2.54385 1.31979 2.38152 1.45208C2.2192 1.58542 2.0642 1.725 1.91549 1.87292C1.76678 2.02083 1.62645 2.175 1.49345 2.33646C1.36045 2.49792 1.23478 2.66563 1.11854 2.83958C1.00229 3.0125 0.894424 3.19167 0.794935 3.37604C0.696493 3.56042 0.606429 3.74896 0.525791 3.94167C0.446199 4.13438 0.374987 4.33021 0.314246 4.53021C0.253505 4.73021 0.20219 4.93229 0.161347 5.1375C0.120504 5.34167 0.0901339 5.54792 0.0691886 5.75521C0.0482438 5.96354 0.0388184 6.17188 0.0388184 6.38021V56.6552C0.0398658 56.8625 0.0503382 57.0698 0.0723304 57.2771C0.0943227 57.4844 0.12574 57.6896 0.16763 57.8927C0.209521 58.0969 0.260836 58.2979 0.322624 58.4969C0.384412 58.6958 0.455625 58.8917 0.536263 59.0833C0.616902 59.275 0.706965 59.4625 0.806454 59.6458C0.905943 59.8292 1.01381 60.0063 1.13006 60.1792C1.24735 60.3521 1.37197 60.5188 1.50497 60.6792C1.63902 60.8396 1.77935 60.9927 1.92806 61.1396C2.07572 61.2865 2.23176 61.426 2.39304 61.5573C2.55537 61.6896 2.72397 61.8125 2.89782 61.9281C3.07166 62.0438 3.25179 62.15 3.4361 62.2479C3.62042 62.3469 3.80997 62.4354 4.00372 62.5146C4.19746 62.5948 4.39434 62.6646 4.59437 62.725C4.79439 62.7854 4.99756 62.8354 5.20282 62.8771C5.40808 62.9177 5.61544 62.9479 5.82384 62.9688C6.03224 62.9896 6.24065 63 6.4501 63H93.4233C93.6338 63 93.8433 62.9896 94.0527 62.9688C94.2611 62.9479 94.4696 62.9167 94.6748 62.876C94.8811 62.8344 95.0843 62.7833 95.2854 62.7229C95.4864 62.6625 95.6844 62.5917 95.8781 62.5115C96.0718 62.4313 96.2614 62.3417 96.4468 62.2438C96.6321 62.1448 96.8123 62.0375 96.9871 61.9208C97.161 61.8052 97.3296 61.6802 97.4919 61.5479C97.6542 61.4156 97.8092 61.275 97.9579 61.1281C98.1067 60.9802 98.247 60.825 98.381 60.6635C98.514 60.5021 98.6387 60.3354 98.7549 60.1615C98.8722 59.9875 98.9801 59.8094 99.0785 59.625C99.178 59.4406 99.267 59.2521 99.3476 59.0594C99.4283 58.8667 99.4985 58.6698 99.5592 58.4708C99.6199 58.2708 99.6712 58.0688 99.7121 57.8635C99.7529 57.6594 99.7844 57.4531 99.8043 57.2448C99.8252 57.0375 99.8357 56.8292 99.8357 56.6208V6.40313C99.8357 6.19375 99.8262 5.98542 99.8064 5.77708C99.7865 5.56875 99.7571 5.36146 99.7163 5.15625C99.6754 4.95104 99.6252 4.74896 99.5644 4.54792C99.5047 4.34792 99.4346 4.15104 99.3539 3.95729C99.2743 3.76354 99.1853 3.575 99.0858 3.38958C98.9874 3.20521 98.8795 3.025 98.7633 2.85104C98.647 2.67708 98.5224 2.50833 98.3884 2.34688C98.2554 2.18438 98.115 2.02917 97.9663 1.88125C97.8176 1.73229 97.6626 1.59167 97.5003 1.45938C97.3369 1.32604 97.1683 1.20104 96.9934 1.08438C96.8185 0.967708 96.6384 0.859375 96.453 0.760417C96.2677 0.661458 96.0781 0.571875 95.8833 0.491667C95.6896 0.411458 95.4917 0.340625 95.2896 0.279167C95.0885 0.217708 94.8843 0.166667 94.678 0.125C94.4716 0.0843749 94.2632 0.053125 94.0538 0.0322917C93.8443 0.0114583 93.6338 0.0010416 93.4233 0ZM96.9631 56.6552C96.9631 56.8854 96.94 57.1146 96.895 57.3417C96.85 57.5677 96.7829 57.7885 96.6939 58.0021C96.6049 58.2156 96.496 58.4177 96.3672 58.6104C96.2373 58.8031 96.0907 58.9813 95.9273 59.1448C95.7629 59.3083 95.5838 59.4542 95.3911 59.5833C95.1974 59.7115 94.9932 59.8208 94.7785 59.9094C94.5638 59.999 94.3428 60.0656 94.1145 60.1115C93.8862 60.1573 93.6558 60.1802 93.4233 60.1813H6.4501C6.21865 60.1781 5.99035 60.1531 5.76415 60.1063C5.53794 60.0583 5.31802 59.9896 5.10542 59.9C4.89283 59.8104 4.69071 59.7 4.49907 59.5708C4.30847 59.4417 4.13148 59.2958 3.96916 59.1323C3.80683 58.9688 3.66126 58.7917 3.53455 58.6C3.40678 58.4083 3.29891 58.2063 3.21095 57.9938C3.12402 57.7813 3.057 57.5625 3.01301 57.3375C2.96798 57.1115 2.94494 56.8844 2.94599 56.6552V22.6094H96.9631V56.6552ZM96.9631 10.4656H2.94599V6.38021C2.94494 6.15104 2.96798 5.92292 3.01301 5.69792C3.057 5.47292 3.12402 5.25313 3.21095 5.04063C3.29891 4.82917 3.40678 4.62708 3.53455 4.43542C3.66126 4.24375 3.80683 4.06563 3.96916 3.90208C4.13148 3.73958 4.30847 3.59271 4.49907 3.46354C4.69071 3.33438 4.89283 3.225 5.10542 3.13542C5.31802 3.04479 5.53794 2.97604 5.76415 2.92917C5.99035 2.88125 6.21865 2.85625 6.4501 2.85313H93.4233C93.6558 2.85417 93.8862 2.87813 94.1145 2.92292C94.3428 2.96875 94.5638 3.03646 94.7785 3.125C94.9932 3.21458 95.1974 3.32292 95.3911 3.45208C95.5838 3.58021 95.7629 3.72708 95.9273 3.89063C96.0907 4.05417 96.2373 4.23229 96.3672 4.425C96.496 4.61667 96.6049 4.81979 96.6939 5.03333C96.7829 5.24688 96.85 5.46667 96.895 5.69375C96.94 5.91979 96.9631 6.14896 96.9631 6.38021V10.4656Z" fill="#04D282"/>
</g>
</svg>
