<svg width="100" height="100" viewBox="0 0 100 100" fill="none" xmlns="http://www.w3.org/2000/svg">
<g clip-path="url(#clip0_142_44)">
<path d="M87.2844 28.2458L94.7625 36.1656C94.9083 36.3198 95.0583 36.4844 95.2104 36.6563C98.4219 40.3198 100.008 45.1479 100 49.9802C99.9917 54.8063 98.3917 59.6458 95.2344 63.3479C95.0938 63.5125 94.9417 63.6823 94.7823 63.8583L87.5042 71.776C86.9865 72.3396 86.3021 72.6 85.6302 72.5604C84.3344 72.5521 83.1156 72.5781 81.9698 72.6C79.65 72.6479 77.6021 72.6896 75.5021 72.4563C73.6677 72.25 72.2521 71.8635 70.8302 71.0479C69.476 70.2719 68.224 69.1542 66.676 67.4635C65.7438 66.4458 64.6177 65.1938 63.424 63.8635C61.1063 61.2865 58.5198 58.4083 56.6458 56.4635C55.324 55.0917 54.426 54.2542 53.7396 53.7438C53.224 53.3625 52.8375 53.1865 52.4323 53.0719C50.6479 52.5719 49.3323 52.5719 47.5479 53.0719C47.1417 53.1865 46.7563 53.3625 46.2417 53.7438C45.5563 54.2542 44.6583 55.0917 43.3344 56.4635C41.4604 58.4083 38.874 61.2865 36.5563 63.8635C35.3625 65.1938 34.2365 66.4458 33.3042 67.4635C31.7563 69.1542 30.5063 70.2719 29.15 71.0479C27.7302 71.8635 26.3125 72.25 24.4781 72.4563C22.3781 72.6896 20.3302 72.6479 18.0125 72.6C16.8281 72.576 15.5698 72.55 14.2281 72.5625C13.5479 72.5635 12.9302 72.2635 12.4781 71.774L12.476 71.776L5.19792 63.8583L4.90417 63.5302C1.63646 59.8 0 54.9083 0 50.0219C0 45.1365 1.63438 40.2438 4.90417 36.5135L5.19792 36.1865L12.476 28.2677C12.9958 27.7042 13.6802 27.4438 14.35 27.4844C15.6458 27.4917 16.8635 27.4656 18.0125 27.4417C20.3302 27.3958 22.3802 27.3542 24.4781 27.5875C26.3125 27.7938 27.7302 28.1802 29.15 28.9958C30.5063 29.7719 31.7563 30.8896 33.3042 32.5802C34.2365 33.5979 35.3625 34.85 36.5563 36.1802C38.874 38.7583 41.4604 41.6365 43.3344 43.5802C44.6583 44.9521 45.5563 45.7896 46.2417 46.3C46.7563 46.6823 47.1417 46.8583 47.5479 46.9719C49.3344 47.4719 50.6479 47.4719 52.4323 46.9719C52.8375 46.8583 53.224 46.6823 53.7396 46.3C54.426 45.7896 55.324 44.9521 56.6458 43.5802C58.5198 41.6365 61.1063 38.7583 63.424 36.1802C64.6177 34.85 65.7438 33.5979 66.676 32.5802C68.224 30.8896 69.476 29.7719 70.8302 28.9958C72.2521 28.1802 73.6677 27.7938 75.5021 27.5875C77.5979 27.3542 79.5563 27.3958 81.8083 27.4417C82.9635 27.4677 84.2042 27.4938 85.5521 27.4823C86.2219 27.4802 86.8323 27.7719 87.2823 28.2479L87.2844 28.2458ZM72.1156 18.6104L58.8656 4.04375C56.4135 1.34792 53.2042 0 49.9896 0C46.776 0 43.5656 1.34792 41.1135 4.04375L27.8635 18.6104C30.55 18.8875 32.8979 19.8219 36.2281 22.6698C38.8396 24.9063 42.5542 28.6563 45.6302 31.7625C46.8302 32.974 47.9281 34.0823 48.9438 35.076C49.3323 35.4563 49.6802 35.7875 49.9896 36.0802C50.3 35.7875 50.6479 35.4563 51.0365 35.076C52.0521 34.0823 53.15 32.974 54.35 31.7625C57.426 28.6563 61.1396 24.9063 63.7542 22.6698C67.0844 19.8219 69.4302 18.8875 72.1156 18.6104ZM58.8865 95.9781L72.1562 81.726C69.4417 81.324 67.0979 80.2365 63.7542 77.374C61.1396 75.1375 57.426 71.3875 54.35 68.2823C53.1521 67.0698 52.0583 65.9656 51.0365 64.9677C50.6479 64.5875 50.3 64.2563 49.9896 63.9635C49.6802 64.2563 49.3323 64.5875 48.9438 64.9677C47.924 65.9656 46.8302 67.0698 45.6302 68.2823C42.5542 71.3875 38.8396 75.1375 36.2281 77.374C32.8865 80.2323 30.626 81.3219 27.974 81.724L41.1042 95.9875C43.5698 98.6656 46.7625 100 49.9604 100C53.176 100 56.3917 98.6563 58.8865 95.9781Z" fill="#04D282"/>
</g>
<defs>
<clipPath id="clip0_142_44">
<rect width="100" height="100" fill="white"/>
</clipPath>
</defs>
</svg>
